<?xml version="1.0" standalone="no"?>
<!DOCTYPE svg PUBLIC "-//W3C//DTD SVG 20010904//EN"
 "http://www.w3.org/TR/2001/REC-SVG-20010904/DTD/svg10.dtd">
<svg version="1.0" xmlns="http://www.w3.org/2000/svg"
 width="708.000000pt" height="708.000000pt" viewBox="0 0 708.000000 708.000000"
 preserveAspectRatio="xMidYMid meet">
<metadata>
Created by potrace 1.11, written by Peter Selinger 2001-2013
</metadata>
<g transform="translate(0.000000,708.000000) scale(0.100000,-0.100000)"
fill="#000000" stroke="none">
<path d="M5 3536 l0 -3005 29 27 c16 15 174 171 351 347 l322 320 -1 1822 -1
1822 28 -27 c65 -62 396 -388 880 -866 286 -281 594 -584 685 -674 92 -89 209
-203 259 -253 58 -56 97 -88 105 -83 8 5 9 2 5 -9 -4 -11 -1 -17 9 -17 9 0 12
-5 8 -12 -4 -7 -3 -8 4 -4 7 4 12 2 12 -3 0 -17 93 -100 104 -94 5 4 7 -1 3
-11 -4 -9 -3 -15 2 -11 6 3 9 14 8 25 -1 14 -4 16 -14 8 -8 -6 -13 -7 -13 0 0
5 7 15 15 22 12 10 16 10 19 -1 2 -8 6 -21 9 -30 3 -9 1 -21 -4 -26 -6 -6 -4
-15 7 -24 10 -8 15 -9 11 -3 -4 7 0 14 8 18 8 3 18 -2 23 -11 8 -14 10 -14 15
1 7 19 -1 46 -14 46 -5 0 -12 -7 -15 -15 -4 -8 -10 -15 -15 -15 -6 0 -4 10 2
22 10 18 8 24 -7 35 -10 7 -12 13 -5 13 7 0 9 5 5 11 -4 8 -9 7 -15 -2 -5 -8
-9 -12 -10 -9 0 3 -2 13 -4 22 -2 11 3 16 16 15 20 -1 33 -23 23 -38 -4 -8 8
-13 27 -11 3 1 12 -10 19 -23 7 -14 20 -25 29 -25 11 0 9 5 -7 16 -22 15 -22
17 -6 35 9 10 22 19 27 19 6 0 2 -9 -7 -19 -13 -14 -14 -21 -5 -27 7 -4 10 -3
7 2 -3 5 0 15 8 22 8 7 14 10 14 6 0 -3 6 -1 14 5 8 7 16 8 18 4 3 -4 3 -2 1
6 -2 7 0 19 4 25 5 7 -2 1 -13 -12 -13 -14 -24 -20 -28 -14 -3 6 0 12 6 15 7
2 -3 4 -22 3 -26 -2 -35 -6 -34 -18 1 -10 -6 -16 -17 -15 -11 1 -19 7 -19 15
0 8 5 10 13 6 9 -6 9 -4 0 7 -16 16 -17 37 -2 22 6 -6 18 -9 25 -6 17 6 19 24
3 20 -6 -1 -13 3 -16 9 -2 6 4 11 13 11 9 0 19 -8 21 -18 3 -11 13 -17 26 -15
53 6 75 33 57 67 -13 23 5 27 18 3 8 -15 10 -14 16 2 9 22 -7 32 -46 28 -25
-3 -28 -2 -18 10 6 8 18 12 27 9 12 -5 14 -1 9 14 -4 14 -2 20 9 20 10 0 13
-6 9 -19 -3 -11 0 -19 8 -20 7 0 18 -2 23 -2 6 -1 16 -5 23 -9 7 -5 12 -4 12
3 0 6 10 15 23 20 16 6 17 9 5 9 -9 1 -20 -4 -23 -9 -3 -5 -11 -10 -17 -10 -7
0 -6 6 2 15 9 11 10 18 1 28 -6 8 -8 17 -4 20 9 9 23 9 22 0 -3 -20 2 -33 13
-33 9 0 9 3 0 12 -10 10 -7 15 10 25 13 7 17 12 10 13 -7 0 -11 4 -7 10 3 5
12 7 20 4 8 -4 12 -11 9 -16 -4 -6 3 -5 15 1 16 9 26 8 46 -5 14 -9 25 -12 25
-8 0 5 -13 15 -30 22 -16 8 -30 18 -30 23 0 6 5 7 10 4 5 -3 10 -1 10 5 0 7
-6 10 -12 7 -7 -2 -12 -12 -12 -21 2 -19 -4 -20 -31 -3 -25 15 -31 56 -8 53 9
-2 19 -9 21 -16 3 -7 0 -10 -5 -7 -5 3 -10 0 -10 -8 0 -20 6 -19 27 7 15 19
20 20 34 9 11 -10 16 -10 16 -2 0 7 5 9 10 6 6 -4 8 -11 5 -16 -4 -5 -1 -9 4
-9 13 0 14 10 3 28 -5 7 -16 10 -25 6 -13 -5 -16 -2 -11 10 3 9 10 13 15 10 5
-3 6 1 3 9 -4 10 3 14 23 13 30 -1 43 -10 60 -40 9 -16 11 -17 16 -2 4 10 3
15 -1 12 -4 -2 -17 9 -27 25 -15 21 -25 27 -40 23 -11 -4 -17 -3 -13 1 4 4 3
16 -2 25 -7 13 -5 22 7 31 14 12 16 12 11 -2 -7 -19 8 -47 19 -36 4 5 1 12 -6
16 -11 7 -11 9 0 13 9 3 -12 32 -61 82 -41 42 -80 74 -86 72 -7 -3 -20 1 -30
8 -13 10 -14 15 -4 21 8 5 11 4 7 -2 -4 -6 0 -13 8 -17 42 -16 59 -32 -1114
1124 -282 278 -584 575 -671 660 -87 85 -391 385 -676 666 -578 570 -644 634
-647 634 -1 0 -2 -1352 -2 -3004z m3022 -10 c0 -15 -21 -16 -34 -1 -4 4 -3 5
4 1 6 -3 14 -2 18 4 8 14 12 13 12 -4z m-92 -6 c3 -6 -1 -7 -9 -4 -18 7 -21
14 -7 14 6 0 13 -4 16 -10z m40 -20 c-3 -5 -12 -10 -18 -10 -7 0 -6 4 3 10 19
12 23 12 15 0z m48 -10 c3 6 5 6 3 -1 -3 -17 -33 -20 -33 -3 0 10 4 11 13 3 8
-7 14 -6 17 1z m48 -4 c5 3 9 0 9 -6 0 -15 -23 -7 -26 8 -1 7 0 8 3 2 2 -5 9
-8 14 -4z m-157 -24 c3 -5 -1 -9 -9 -9 -8 0 -12 4 -9 9 3 4 7 8 9 8 2 0 6 -4
9 -8z m133 -12 c-1 -10 -3 -17 -6 -15 -2 3 -10 -3 -18 -13 -12 -15 -13 -14 -1
8 7 14 11 28 10 33 -1 4 2 7 7 7 6 0 9 -9 8 -20z m47 -23 c-11 -6 -21 -10 -24
-10 -3 1 -10 -8 -16 -19 -10 -19 -11 -19 -18 -2 -4 10 -4 15 0 12 4 -4 15 4
26 17 12 15 25 22 34 18 14 -5 14 -7 -2 -16z m78 -35 c-3 -10 -1 -13 6 -8 6 4
28 -8 49 -28 36 -32 37 -35 21 -53 -21 -23 -23 -34 -6 -44 8 -5 9 -9 2 -9 -6
0 -17 -13 -24 -29 -15 -37 -40 -48 -57 -25 -9 13 -13 14 -13 4 0 -9 -5 -8 -14
5 -12 17 -16 18 -32 5 -18 -14 -18 -14 -4 5 14 19 14 19 -5 5 -16 -11 -17 -11
-7 0 17 19 15 28 -7 40 -22 11 -54 3 -45 -12 4 -5 10 -5 18 1 7 6 17 6 26 1
12 -7 11 -12 -5 -30 -14 -16 -15 -21 -5 -18 8 2 14 -3 12 -10 -1 -8 2 -11 9
-6 8 4 9 3 5 -5 -4 -6 -12 -9 -17 -6 -5 3 -6 -2 -3 -12 3 -10 2 -14 -3 -8 -4
6 -17 11 -28 13 -16 2 -17 1 -5 -7 13 -10 13 -11 0 -11 -11 0 -12 -2 -3 -8 9
-5 6 -12 -10 -21 -21 -14 -21 -13 -7 5 14 17 14 18 -2 6 -9 -8 -21 -11 -26 -8
-5 3 -9 -1 -9 -9 0 -8 4 -12 9 -9 5 3 15 0 23 -6 16 -13 20 -31 8 -29 -28 5
-35 -1 -22 -18 7 -10 9 -15 4 -10 -4 4 -16 0 -26 -9 -18 -16 -39 -12 -39 8 0
7 4 7 13 -1 10 -8 14 -7 14 4 0 8 -5 11 -10 8 -6 -4 -7 -1 -2 7 6 9 4 11 -5 5
-9 -5 -11 -4 -6 4 8 13 -10 41 -27 41 -6 0 -2 -7 9 -15 19 -14 18 -15 -6 -35
-15 -12 -18 -18 -7 -14 19 7 24 -11 5 -22 -7 -5 -8 -3 -3 5 6 10 3 11 -14 2
-12 -7 -27 -9 -33 -5 -7 5 -8 3 -4 -5 5 -7 15 -10 25 -7 12 5 11 2 -3 -9 -14
-11 -16 -15 -5 -15 11 0 12 -2 0 -9 -9 -6 -10 -11 -2 -15 6 -4 11 -2 11 4 0 6
5 8 10 5 6 -3 10 -11 10 -16 0 -6 -4 -8 -9 -4 -16 10 -23 -15 -9 -33 12 -15
11 -16 -5 -3 -16 13 -20 13 -28 0 -7 -12 -9 -12 -9 1 0 12 -2 12 -9 2 -6 -11
-9 -10 -13 5 -6 24 1 45 14 37 7 -4 6 -9 -2 -14 -8 -5 -7 -9 5 -13 10 -5 14
-3 9 5 -4 6 -3 8 3 5 5 -3 10 0 10 8 0 8 -5 11 -10 8 -6 -4 -7 -1 -2 7 5 8 4
11 -3 6 -6 -3 -17 3 -25 14 -12 17 -16 18 -20 6 -4 -9 -2 -18 3 -21 9 -6 8
-44 -2 -60 -3 -6 -4 -18 -3 -27 2 -9 -3 -23 -12 -29 -12 -10 -21 -6 -50 24
-32 31 -35 38 -23 52 12 14 12 16 -1 15 -34 -5 -43 0 -25 13 15 11 17 17 7 35
-6 12 -8 22 -3 22 6 0 13 -10 17 -22 6 -20 8 -21 12 -5 3 10 -1 24 -7 32 -8
10 -9 19 -1 32 10 16 10 15 8 -6 -1 -13 3 -26 9 -28 7 -2 11 4 10 14 0 12 6
18 19 19 41 2 48 4 41 11 -4 4 -19 8 -34 8 -15 0 -28 5 -29 10 -1 6 -12 13
-25 17 -22 7 -22 7 2 5 14 -1 24 -8 22 -15 -3 -19 11 -14 36 12 14 15 19 27
12 31 -5 3 -10 11 -10 18 0 6 7 2 15 -10 10 -14 22 -19 35 -16 11 3 20 0 20
-6 0 -5 -8 -8 -17 -5 -16 5 -15 3 1 -10 26 -21 29 -18 35 48 1 4 7 6 15 3 22
-9 29 23 10 44 -10 11 -14 19 -11 19 3 0 15 -10 27 -22 16 -18 20 -19 20 -5 0
17 -39 49 -51 41 -4 -2 -10 0 -14 5 -9 16 36 3 58 -16 19 -17 19 -17 14 2 -5
15 2 25 25 40 18 11 34 27 36 35 4 11 -1 10 -17 -4 -11 -11 -21 -16 -21 -12 0
4 -10 -2 -22 -14 -23 -21 -45 -22 -40 -1 3 14 -15 15 -21 1 -3 -6 -4 -5 -3 2
2 7 9 13 17 13 8 0 13 -6 12 -12 -4 -19 12 -16 32 7 10 11 20 18 24 16 9 -6
31 21 24 28 -4 3 -1 6 5 6 7 0 12 -6 12 -12 0 -10 3 -9 9 1 6 9 8 2 7 -20 -2
-25 -6 -34 -19 -33 -19 2 -21 -4 -8 -25 18 -29 43 1 42 52 0 9 4 17 10 17 5 0
9 5 9 11 0 5 -4 7 -10 4 -5 -3 -10 -1 -10 5 0 7 7 9 16 6 12 -4 15 -2 10 9 -8
22 4 47 18 37 6 -5 21 -9 34 -10 19 -1 21 2 12 13 -6 8 -19 11 -28 8 -22 -8
-9 6 25 27 24 14 29 14 44 2 10 -8 15 -22 11 -30z m-282 28 c0 -5 -5 -10 -11
-10 -5 0 -7 5 -4 10 3 6 8 10 11 10 2 0 4 -4 4 -10z m110 -16 c0 -8 -5 -14
-11 -14 -5 0 -7 -6 -3 -12 4 -7 3 -9 -1 -5 -13 11 -15 38 -2 30 7 -4 8 0 4 11
-4 10 -3 15 3 11 6 -3 10 -13 10 -21z m-270 12 c0 -2 -8 -10 -17 -17 -16 -13
-17 -12 -4 4 13 16 21 21 21 13z m117 -11 c0 -8 -4 -12 -9 -9 -5 3 -6 10 -3
15 9 13 12 11 12 -6z m-62 -25 c3 -5 1 -10 -4 -10 -6 0 -11 5 -11 10 0 6 2 10
4 10 3 0 8 -4 11 -10z m248 -4 c8 -21 -18 -40 -39 -28 -15 8 -15 9 0 15 10 4
15 3 11 -3 -3 -6 -2 -10 3 -10 16 0 22 13 11 27 -7 8 -8 13 -1 13 5 0 12 -6
15 -14z m-74 -12 c4 3 8 -5 8 -16 2 -20 1 -20 -12 -2 -8 11 -14 24 -14 29 0 6
3 4 6 -3 2 -6 8 -10 12 -8z m-29 2 c0 -3 -4 -8 -10 -11 -5 -3 -10 -1 -10 4 0
6 5 11 10 11 6 0 10 -2 10 -4z m-183 -31 c0 -8 -4 -12 -9 -9 -5 3 -6 10 -3 15
9 13 12 11 12 -6z m113 11 c0 -2 -8 -10 -17 -17 -16 -13 -17 -12 -4 4 13 16
21 21 21 13z m25 -16 c-3 -4 0 -11 5 -13 6 -3 5 -4 -1 -3 -7 1 -13 10 -15 19
-1 9 2 15 7 11 5 -3 7 -9 4 -14z m65 0 c7 -14 7 -20 0 -20 -5 0 -10 7 -10 16
0 9 -5 12 -12 8 -7 -4 -8 -3 -4 4 10 16 14 15 26 -8z m-160 6 c0 -2 -8 -10
-17 -17 -16 -13 -17 -12 -4 4 13 16 21 21 21 13z m24 -38 c-3 -4 -9 -8 -15 -8
-5 0 -9 4 -9 8 0 5 7 9 15 9 8 0 12 -4 9 -9z m116 2 c0 -5 -4 -10 -10 -10 -5
0 -10 5 -10 10 0 6 5 10 10 10 6 0 10 -4 10 -10z m-185 -20 c3 -5 1 -10 -4
-10 -6 0 -11 5 -11 10 0 6 2 10 4 10 3 0 8 -4 11 -10z m105 6 c0 -3 -4 -8 -10
-11 -5 -3 -10 -1 -10 4 0 6 5 11 10 11 6 0 10 -2 10 -4z m-5 -36 c3 -6 -1 -7
-9 -4 -18 7 -21 14 -7 14 6 0 13 -4 16 -10z m-155 -4 c0 -2 -7 -7 -16 -10 -8
-3 -12 -2 -9 4 6 10 25 14 25 6z m100 -6 c0 -5 -4 -10 -10 -10 -5 0 -10 5 -10
10 0 6 5 10 10 10 6 0 10 -4 10 -10z m-163 -32 c2 -17 0 -19 -7 -8 -5 8 -6 18
-4 22 8 12 10 10 11 -14z m104 9 c-7 -7 -5 -15 7 -24 15 -13 15 -13 -4 -4 -15
7 -25 7 -35 -2 -7 -7 -6 -3 4 9 9 11 15 23 12 26 -3 2 2 5 10 5 11 0 12 -4 6
-10z m132 5 c3 -4 -3 -17 -13 -29 l-17 -22 -11 24 c-6 12 -8 26 -5 29 9 9 41
7 46 -2z m264 -42 c0 -16 -4 -30 -9 -30 -4 0 -8 -5 -8 -11 0 -5 4 -8 9 -4 6 3
9 -4 8 -15 -2 -28 -11 -25 -25 8 -6 15 -9 18 -6 6 2 -12 -2 -27 -11 -34 -12
-10 -13 -16 -3 -27 9 -11 8 -17 -4 -30 -17 -16 -43 -9 -32 8 3 5 -1 21 -10 34
-15 23 -15 25 4 35 11 6 17 16 14 22 -5 7 -2 9 9 5 15 -6 37 18 43 46 1 4 2 9
3 12 0 3 5 5 9 5 5 0 9 -13 9 -30z m-322 10 c4 -6 -1 -7 -11 -3 -13 5 -15 3
-9 -7 5 -9 4 -11 -4 -6 -6 4 -9 12 -6 17 8 12 22 12 30 -1z m84 -13 c0 -8 -2
-7 -6 1 -4 10 -11 5 -24 -15 -10 -15 -19 -23 -19 -18 0 6 7 21 16 33 15 22 35
22 33 -1z m-349 -11 c0 -2 -8 -10 -17 -17 -16 -13 -17 -12 -4 4 13 16 21 21
21 13z m220 -6 c-8 -5 -19 -10 -25 -10 -5 0 -3 5 5 10 8 5 20 10 25 10 6 0 3
-5 -5 -10z m64 -5 c3 -8 1 -15 -3 -15 -5 0 -11 7 -15 15 -3 8 -1 15 3 15 5 0
11 -7 15 -15z m-209 -15 c3 -6 -1 -7 -9 -4 -18 7 -21 14 -7 14 6 0 13 -4 16
-10z m120 -8 c-3 -3 -11 0 -18 7 -9 10 -8 11 6 5 10 -3 15 -9 12 -12z m-61
-11 c13 -14 14 -21 5 -27 -8 -5 -10 -3 -4 6 6 9 4 12 -6 8 -10 -4 -15 1 -15
13 0 23 -1 23 20 0z m-130 1 c3 -5 -1 -9 -9 -9 -8 0 -12 4 -9 9 3 4 7 8 9 8 2
0 6 -4 9 -8z m236 4 c0 -2 -7 -6 -15 -10 -8 -3 -15 -1 -15 4 0 6 7 10 15 10 8
0 15 -2 15 -4z m-115 -56 c-3 -5 4 -8 15 -7 12 1 19 6 16 14 -3 7 -1 13 5 13
6 0 9 -8 7 -17 -4 -24 -50 -24 -54 0 -1 9 2 15 7 11 5 -3 7 -9 4 -14z m-42
-52 c-2 -5 -10 -8 -16 -7 -9 0 -9 2 -1 5 7 3 10 15 8 27 -4 21 -4 21 5 2 4
-11 7 -23 4 -27z m37 22 c8 -5 11 -10 5 -10 -5 0 -17 5 -25 10 -8 5 -10 10 -5
10 6 0 17 -5 25 -10z m310 -42 c0 -4 -8 -5 -18 -3 -10 2 -25 -1 -33 -7 -11 -8
-10 -9 4 -4 15 5 17 2 13 -17 -3 -12 -3 -17 0 -10 3 7 11 11 17 9 7 -1 9 -1 5
1 -13 8 -9 20 7 20 27 0 26 -27 -2 -38 -23 -9 -29 -6 -49 18 l-23 28 21 16
c17 13 26 14 40 6 10 -7 18 -15 18 -19z m-328 0 c-7 -7 -12 -8 -12 -2 0 6 3
14 7 17 3 4 9 5 12 2 2 -3 -1 -11 -7 -17z m47 -21 c1 -5 -3 -5 -9 -2 -5 3 -10
16 -9 28 0 21 1 21 9 2 5 -11 9 -24 9 -28z m308 27 c-3 -4 -2 -15 4 -26 8 -15
7 -24 -6 -38 -16 -18 -59 -24 -48 -7 3 4 11 6 17 4 17 -7 36 26 26 43 -9 14
-4 30 7 30 4 0 3 -3 0 -6z m-337 -24 c0 -5 -5 -10 -11 -10 -5 0 -7 5 -4 10 3
6 8 10 11 10 2 0 4 -4 4 -10z m270 -94 c0 -3 -4 -8 -10 -11 -5 -3 -10 -1 -10
4 0 6 5 11 10 11 6 0 10 -2 10 -4z m-40 -87 c0 -6 -4 -7 -10 -4 -5 3 -10 11
-10 16 0 6 5 7 10 4 6 -3 10 -11 10 -16z"/>
<path d="M3121 3411 c-10 -7 -9 -12 8 -23 27 -19 9 -29 -38 -23 -17 2 -31 0
-31 -5 0 -9 7 -11 50 -14 8 -1 20 -4 26 -8 7 -5 14 -1 18 8 4 10 2 13 -6 8 -7
-4 -8 -3 -4 4 11 18 29 14 22 -4 -4 -10 -2 -13 7 -9 6 4 3 -1 -8 -11 -17 -14
-18 -16 -2 -10 10 3 15 2 12 -3 -3 -5 -1 -12 5 -16 6 -4 8 -11 5 -16 -4 -5 2
-6 12 -2 23 8 15 -1 -14 -16 -20 -10 -22 -9 -16 6 5 13 3 15 -11 10 -9 -4 -15
-3 -12 1 3 5 -1 9 -9 9 -12 0 -12 -3 -2 -16 10 -12 9 -13 -2 -6 -9 5 -12 4 -8
-2 3 -5 0 -10 -7 -10 -9 0 -13 9 -10 23 4 22 -15 28 -32 11 -4 -4 -11 -7 -16
-7 -4 0 1 9 13 21 11 11 18 24 14 27 -7 7 -38 -32 -41 -52 -1 -7 7 -12 16 -12
10 0 16 4 14 8 -3 4 0 8 5 8 6 0 11 -6 11 -14 0 -19 43 -59 66 -61 11 -1 25
-4 33 -6 13 -4 23 19 22 54 0 11 5 15 12 11 7 -4 9 -3 4 1 -4 5 1 17 10 27 16
18 15 20 -8 44 -14 13 -35 26 -47 29 -30 5 -42 14 -42 28 0 8 3 8 9 -2 5 -8
11 -9 15 -3 3 5 -1 13 -10 16 -19 7 -16 8 -33 -3z m79 -56 c4 2 16 -5 25 -16
18 -18 18 -21 2 -36 -11 -11 -17 -13 -17 -5 0 7 -5 11 -11 10 -7 -2 -13 12
-14 32 -2 19 -1 29 2 22 3 -6 8 -10 13 -7z m-41 -82 c-3 -19 2 -23 20 -13 22
11 34 1 22 -19 -13 -21 -59 -20 -78 2 -10 11 -13 17 -7 14 7 -4 17 0 24 8 14
16 21 19 19 8z"/>
<path d="M3199 3349 c-7 -37 -7 -40 6 -29 10 8 14 7 18 -2 3 -8 6 -8 6 -2 1
10 -28 42 -30 33z"/>
<path d="M3136 3251 c-4 -5 -2 -12 3 -15 5 -4 12 -2 15 3 4 5 2 12 -3 15 -5 4
-12 2 -15 -3z"/>
<path d="M3180 3250 c-8 -5 -12 -12 -9 -15 4 -3 12 1 19 10 14 17 11 19 -10 5z"/>
<path d="M3110 3325 c0 -12 13 -20 23 -13 1 1 13 -4 27 -11 22 -11 21 -10 -5
13 -35 29 -45 32 -45 11z"/>
<path d="M2995 3280 c-3 -5 -1 -10 4 -10 6 0 11 5 11 10 0 6 -2 10 -4 10 -3 0
-8 -4 -11 -10z"/>
<path d="M2945 3240 c-3 -5 3 -10 14 -10 11 0 22 -9 26 -20 7 -21 27 -28 23
-8 -4 15 -36 48 -47 48 -6 0 -13 -4 -16 -10z"/>
<path d="M3056 3242 c-4 -4 -13 -7 -19 -7 -7 -1 -11 -6 -9 -13 1 -7 -3 -12 -9
-12 -5 0 -8 -4 -4 -9 13 -22 -19 -22 -35 -1 -16 22 -40 21 -40 -2 0 -6 7 -5
18 3 15 13 16 12 4 -3 -9 -11 -10 -18 -2 -23 5 -3 10 -1 10 5 0 6 5 8 11 4 8
-4 7 -9 -2 -15 -8 -4 -14 -12 -14 -16 0 -4 -6 -17 -13 -28 -12 -19 -12 -19
-10 -1 2 10 -3 21 -11 24 -9 3 -11 0 -6 -8 6 -9 4 -11 -5 -5 -10 6 -7 12 11
26 13 10 20 19 14 19 -20 0 -38 -19 -40 -42 -1 -12 -7 -22 -13 -21 -6 2 -16
-6 -22 -17 -9 -17 -14 -18 -35 -8 -14 6 -25 16 -25 21 0 6 -9 2 -20 -8 -23
-21 -18 -34 5 -15 13 11 16 11 13 0 -2 -7 3 -15 11 -18 9 -3 11 0 6 9 -5 8 4
3 20 -11 20 -18 26 -20 22 -8 -3 9 0 21 7 27 20 17 27 1 11 -23 -18 -24 -19
-36 -4 -36 5 0 8 4 5 8 -3 5 6 15 19 22 14 7 25 17 25 22 0 5 -4 7 -9 4 -5 -3
-11 1 -15 9 -3 8 0 18 6 21 14 9 70 -55 61 -70 -4 -6 -2 -7 3 -3 5 5 10 13 10
18 1 5 2 14 3 20 0 5 6 7 11 4 6 -3 10 -1 10 5 0 6 -7 10 -16 8 -10 -2 -18 5
-20 16 -4 26 6 41 17 25 7 -11 11 -11 21 -1 7 7 13 18 13 25 0 7 8 12 17 12
10 0 23 6 30 13 7 8 9 13 3 12 -24 -5 -27 1 -11 19 16 18 8 40 -8 23z m14 -6
c0 -2 -6 -9 -14 -15 -11 -9 -16 -9 -22 0 -4 7 -3 9 4 5 6 -3 13 -2 17 4 6 10
15 14 15 6z m-14 -48 c4 -7 3 -8 -5 -4 -14 9 -43 -12 -36 -24 3 -5 1 -11 -4
-14 -22 -14 -21 16 1 34 27 23 34 24 44 8z m-91 -77 c-3 -5 -1 -12 5 -16 5 -3
10 -11 10 -18 0 -6 -6 -2 -14 8 -13 18 -13 35 0 35 3 0 3 -4 -1 -9z"/>
<path d="M2945 3161 c-3 -5 -2 -12 3 -15 5 -3 9 1 9 9 0 17 -3 19 -12 6z"/>
<path d="M2876 3141 c-3 -5 1 -11 9 -14 9 -4 12 -1 8 9 -6 16 -10 17 -17 5z"/>
<path d="M2815 3058 c-27 -15 -36 -30 -29 -48 3 -8 2 -11 -2 -7 -4 4 -14 1
-23 -6 -14 -10 -14 -10 -3 5 8 9 10 23 6 29 -5 8 -3 9 6 4 9 -5 11 -4 6 3 -10
17 -29 15 -23 -2 3 -7 1 -18 -5 -24 -13 -13 0 -35 18 -28 7 3 16 0 20 -6 4 -6
3 -8 -2 -5 -6 3 -10 -11 -9 -33 1 -27 -3 -36 -12 -33 -7 3 -11 9 -8 13 9 14
-16 23 -28 11 -8 -8 -3 -19 18 -41 32 -33 50 -34 50 -4 0 10 4 25 9 33 6 10 5
12 -2 7 -15 -9 -15 7 0 22 8 8 8 15 -2 27 -9 11 -10 19 -2 27 6 6 8 16 6 23
-7 17 13 29 22 14 4 -8 3 -9 -4 -5 -16 10 -14 -5 3 -28 18 -23 44 -30 41 -10
-1 7 -5 16 -8 20 -4 3 -4 12 -2 18 8 21 -18 36 -41 24z m33 -23 c-3 -3 -9 2
-12 12 -6 14 -5 15 5 6 7 -7 10 -15 7 -18z m7 -24 c3 -5 0 -13 -6 -17 -7 -4
-9 -3 -5 4 3 5 0 13 -6 15 -9 4 -10 6 -1 6 6 1 14 -3 18 -8z m-64 -64 c-10 -9
-11 -8 -5 6 3 10 9 15 12 12 3 -3 0 -11 -7 -18z m-12 -53 c4 3 8 -1 8 -9 0 -8
-2 -15 -4 -15 -7 0 -53 44 -53 52 0 4 9 -1 20 -12 12 -12 24 -19 29 -16z"/>
<path d="M2714 2964 c-10 -8 -13 -13 -6 -9 7 4 23 0 36 -8 20 -14 23 -14 23 1
0 16 -14 31 -28 32 -3 0 -14 -7 -25 -16z"/>
<path d="M2826 3205 c4 -8 7 -15 9 -15 1 0 8 7 15 15 10 13 9 15 -8 15 -15 0
-20 -5 -16 -15z"/>
<path d="M3100 3159 c0 -5 5 -7 10 -4 6 3 10 8 10 11 0 2 -4 4 -10 4 -5 0 -10
-5 -10 -11z"/>
<path d="M3045 3113 c-15 -12 -16 -14 -3 -10 13 5 16 0 14 -28 -2 -19 1 -32 6
-29 5 3 6 14 3 24 -3 10 1 25 9 33 22 21 -4 30 -29 10z"/>
<path d="M2926 3012 c-3 -5 1 -9 9 -9 8 0 12 4 9 9 -3 4 -7 8 -9 8 -2 0 -6 -4
-9 -8z"/>
<path d="M6913 6353 c-89 -87 -387 -381 -663 -653 -276 -272 -577 -569 -669
-659 -91 -90 -395 -389 -675 -665 -280 -275 -586 -577 -680 -669 -94 -93 -282
-279 -418 -414 -136 -134 -252 -242 -258 -238 -6 4 -9 1 -8 -7 2 -7 -4 -12
-12 -10 -8 2 -12 0 -7 -4 9 -9 -62 -84 -80 -84 -7 0 -10 -7 -6 -17 5 -12 2
-15 -10 -10 -10 4 -16 2 -14 -6 1 -7 -4 -11 -11 -9 -8 1 -11 -2 -8 -6 7 -12
-28 -44 -39 -35 -4 5 -5 3 -2 -3 8 -14 -26 -47 -37 -37 -4 5 -6 3 -4 -2 5 -15
-63 -85 -76 -78 -6 3 -8 2 -3 -2 9 -11 -52 -75 -72 -75 -8 0 -12 -3 -9 -6 8
-8 -193 -206 -572 -564 -20 -19 -109 -103 -196 -186 -87 -84 -186 -178 -219
-209 -79 -75 -336 -320 -412 -393 -114 -108 -365 -347 -404 -384 -21 -20 -39
-38 -39 -41 0 -2 1013 -4 2252 -4 l2251 0 -64 60 c-35 33 -116 110 -180 171
-64 61 -185 176 -269 256 -191 182 -220 209 -421 401 -287 274 -313 298 -323
292 -5 -3 -6 -1 -3 4 8 13 -17 36 -27 25 -4 -4 -6 0 -4 8 2 8 -2 14 -9 13 -6
-2 -15 7 -18 18 -5 15 -10 17 -20 9 -10 -8 -15 -8 -21 1 -5 8 -3 9 6 4 8 -5
11 -3 8 5 -7 21 -26 23 -31 3 -3 -10 -5 -5 -4 11 2 22 -4 33 -21 42 -13 6 -24
15 -25 20 -1 5 -10 8 -19 8 -18 -1 -25 11 -10 19 4 2 1 2 -7 0 -8 -2 -11 2 -7
12 3 9 2 14 -2 12 -9 -6 -33 19 -26 26 3 3 -3 4 -13 4 -10 -1 -17 3 -16 8 1 6
-8 12 -19 12 -17 2 -14 -3 13 -22 37 -28 45 -61 18 -76 -24 -12 -32 -11 -23 3
4 7 3 8 -4 4 -7 -4 -12 -2 -12 3 0 6 -5 11 -12 11 -9 0 -9 -3 0 -12 19 -19 14
-29 -7 -16 -11 7 -18 15 -15 19 6 11 -32 30 -41 21 -4 -4 -4 3 -1 15 4 12 2
24 -3 28 -7 4 -8 -1 -4 -11 4 -11 3 -15 -5 -10 -6 3 -14 1 -18 -5 -4 -7 -3 -9
3 -6 6 4 14 0 17 -8 3 -8 9 -15 13 -14 17 3 33 -1 31 -8 -1 -5 10 -21 25 -37
15 -16 27 -34 27 -40 0 -6 -13 4 -29 22 -17 17 -36 32 -43 32 -10 0 -9 -3 2
-10 8 -5 11 -13 6 -17 -4 -4 -14 1 -22 11 -8 11 -14 16 -14 10 0 -5 7 -17 14
-27 12 -15 15 -16 26 -2 7 9 15 13 18 10 7 -7 -19 -35 -33 -35 -7 0 -23 16
-34 36 -12 20 -24 34 -28 31 -3 -3 2 -13 11 -22 21 -21 22 -42 1 -25 -18 15
-20 4 -2 -14 16 -15 57 -18 73 -5 10 8 12 5 11 -9 -1 -16 -8 -19 -38 -18 -20
0 -43 7 -51 13 -12 10 -18 10 -34 -2 -10 -8 -14 -15 -8 -15 5 0 15 5 21 11 8
8 13 8 17 0 4 -6 2 -11 -4 -11 -7 0 -10 -7 -7 -15 4 -8 2 -17 -3 -20 -6 -4
-10 0 -10 7 -1 7 -8 0 -16 -15 -8 -15 -20 -25 -26 -21 -7 4 -6 9 3 15 10 6 7
8 -8 6 -12 0 -20 -4 -17 -8 9 -15 -25 -30 -44 -20 -22 12 -32 5 -31 -18 0 -13
2 -13 7 2 7 16 9 16 27 1 17 -13 17 -15 3 -10 -10 3 -18 1 -18 -4 0 -20 28 -9
45 16 9 14 19 23 22 20 3 -3 0 -13 -8 -23 -9 -11 -3 -10 19 6 18 13 36 21 38
18 3 -3 -6 -13 -20 -22 -16 -11 -23 -22 -19 -33 6 -15 4 -15 -9 -4 -13 10 -22
11 -37 2 -16 -8 -26 -7 -46 6 -14 9 -25 12 -25 8 0 -5 -5 -2 -10 6 -5 8 -10
10 -10 4 0 -15 25 -36 33 -28 3 3 14 0 25 -7 19 -14 18 -14 -1 -34 -19 -20
-19 -20 -13 3 4 12 3 22 -2 22 -6 0 -9 -11 -7 -25 3 -28 -7 -32 -25 -10 -9 10
-9 15 -1 15 6 0 11 5 11 10 0 6 -11 3 -25 -6 -14 -9 -23 -20 -20 -24 7 -11
-16 -60 -28 -60 -5 0 -6 8 -2 18 13 33 16 47 4 24 -9 -16 -18 -21 -33 -16 -20
5 -19 5 2 -11 15 -11 21 -23 17 -35 -3 -10 -1 -21 4 -25 6 -3 8 0 5 8 -3 8 2
14 11 14 20 0 19 -11 -2 -33 -16 -16 -15 -18 14 -44 17 -16 29 -31 26 -34 -6
-6 12 -10 30 -7 4 0 7 -6 7 -14 0 -7 6 -18 13 -22 6 -5 38 -36 70 -69 l58 -61
-520 0 c-478 0 -520 1 -509 16 7 9 16 18 19 21 6 4 417 402 506 488 21 20 26
22 41 10 15 -11 16 -11 5 3 -17 21 -5 33 16 16 14 -10 14 -10 3 5 -12 15 -9
21 24 50 21 18 42 32 47 30 4 -1 6 2 3 6 -7 12 28 44 39 35 4 -5 5 -3 2 3 -8
14 17 37 28 26 5 -4 5 -2 2 4 -7 12 89 105 98 96 3 -3 5 0 5 7 0 15 54 71 69
71 6 0 11 6 11 14 0 13 27 31 42 28 5 -1 7 4 5 11 -1 6 6 11 15 11 9 -1 14 4
12 10 -4 11 136 154 527 538 86 84 388 381 670 659 283 279 649 640 814 802
l300 295 3 -1806 2 -1807 348 -341 347 -342 3 1495 c1 822 1 2165 0 2985 l-3
1489 -162 -158z m-2542 -4128 c12 3 19 2 15 -2 -8 -8 14 -34 24 -28 5 3 11 1
15 -4 3 -6 -5 -8 -20 -5 -14 2 -24 1 -23 -3 4 -20 -16 -43 -32 -38 -13 4 -17
0 -16 -17 1 -13 -1 -31 -6 -40 -4 -9 -4 -19 1 -23 10 -6 26 32 23 53 -2 6 2
12 8 12 6 0 8 -4 5 -10 -3 -5 -1 -10 4 -10 6 0 11 -5 11 -11 0 -5 -5 -7 -12
-3 -8 5 -9 2 -4 -12 4 -10 4 -15 0 -12 -4 4 -16 -4 -27 -18 -17 -22 -21 -24
-29 -10 -6 10 -3 24 8 41 10 15 12 25 5 25 -6 0 -11 -3 -11 -7 0 -5 -7 -17
-15 -27 -12 -16 -17 -17 -30 -6 -8 7 -15 8 -15 2 0 -12 25 -34 31 -27 3 2 10
-5 17 -15 7 -12 8 -20 2 -20 -5 0 -10 5 -10 10 0 6 -5 10 -11 10 -6 0 -9 -6
-6 -12 2 -7 0 -21 -5 -31 -8 -15 -12 -16 -25 -5 -14 11 -15 10 -9 -12 6 -21 5
-22 -4 -7 -6 9 -8 22 -4 28 4 8 -1 9 -17 4 -33 -10 -49 -24 -43 -39 3 -7 -5
-18 -18 -24 l-23 -12 23 6 c12 3 22 1 22 -4 0 -8 -6 -10 -50 -14 -22 -2 -26
-13 -10 -23 6 -4 17 -1 25 5 8 6 19 9 24 6 5 -4 12 -2 16 4 8 13 35 13 35 0 0
-5 -7 -7 -15 -3 -9 3 -15 2 -14 -3 3 -21 -2 -26 -15 -15 -18 15 -59 -7 -52
-26 3 -7 -2 -20 -12 -29 -9 -9 -17 -23 -18 -31 -4 -25 -13 -26 -11 -2 0 13 8
29 17 36 9 6 16 21 15 32 -1 23 -15 42 -15 21 0 -9 -6 -8 -20 5 -11 10 -20 13
-20 7 0 -7 9 -17 20 -24 24 -15 27 -30 5 -21 -9 3 -15 2 -14 -3 4 -23 -2 -33
-18 -28 -16 5 -16 4 1 -10 18 -14 18 -15 -2 -13 -11 0 -18 5 -16 9 3 4 0 8 -5
8 -6 0 -11 -7 -11 -15 0 -8 -5 -15 -11 -15 -5 0 -8 4 -4 9 3 5 1 12 -3 15 -5
3 -9 -4 -8 -16 1 -12 9 -22 20 -24 10 -1 24 -8 30 -15 8 -9 6 -9 -11 0 -13 6
-23 8 -23 4 0 -4 -5 -2 -12 5 -7 7 -17 12 -22 12 -6 0 -5 -5 2 -12 7 -7 12
-16 12 -22 0 -5 -7 -1 -15 10 -8 10 -15 16 -15 12 0 -3 -15 7 -34 24 -33 29
-34 32 -20 53 14 22 43 40 50 32 2 -2 -5 -13 -16 -25 -24 -25 -24 -29 -5 -29
8 0 12 4 9 9 -3 5 -2 8 3 7 22 -4 34 2 26 14 -4 6 -9 21 -10 32 -3 16 -1 17 7
5 7 -12 10 -12 10 -1 0 9 5 8 18 -6 9 -10 14 -14 10 -9 -5 6 -8 17 -8 25 0 8
3 11 8 7 4 -4 7 -12 7 -17 0 -5 3 -9 8 -9 4 0 6 1 5 3 -1 1 4 13 11 26 8 14 9
21 2 17 -6 -4 -11 -5 -11 -2 0 3 9 10 21 16 19 11 20 10 9 -12 -10 -22 -10
-22 4 -4 9 10 13 23 9 29 -3 6 -1 7 5 3 8 -5 10 -1 6 11 -5 15 -4 15 5 3 8
-12 10 -11 8 8 -1 21 -17 33 -17 13 0 -5 -8 -8 -17 -6 -10 2 -20 4 -23 4 -3 1
2 6 10 12 12 8 9 9 -10 4 -22 -5 -23 -4 -7 5 12 8 22 8 30 1 9 -7 20 -4 37 10
l25 20 -25 -7 c-25 -6 -25 -6 3 16 24 19 26 24 15 38 -9 10 -9 13 -1 9 6 -4
14 -3 18 3 9 15 22 12 22 -5 0 -10 -6 -14 -15 -10 -13 5 -13 3 0 -17 18 -28
44 -38 35 -14 -5 11 -3 15 5 10 6 -4 8 -3 5 3 -7 11 38 11 49 0 4 -4 12 -7 18
-7 5 0 1 7 -10 16 -10 8 -12 12 -4 8 13 -7 13 -5 1 9 -7 9 -18 14 -24 10 -6
-4 -7 -1 -2 7 5 9 4 11 -3 6 -8 -5 -10 -1 -5 9 4 12 8 13 13 5 5 -9 9 -9 14
-1 11 18 29 13 21 -6 -5 -15 -4 -16 7 -5 11 11 10 16 -6 28 -12 8 -15 14 -7
14 11 0 11 3 0 18 -13 16 -13 16 7 0 15 -13 23 -15 32 -6 8 8 7 14 -6 24 -21
15 -11 27 22 27 14 0 23 3 21 8 -3 4 -1 10 4 14 6 3 8 13 5 23 -3 9 2 5 10
-10 11 -19 22 -26 37 -23z m49 -65 c0 -5 -5 -9 -11 -7 -6 1 -14 -4 -16 -11 -3
-8 2 -10 14 -6 15 5 15 4 3 -5 -13 -9 -12 -12 4 -24 15 -11 16 -16 6 -22 -9
-5 -11 -4 -6 3 4 7 3 12 -3 12 -5 0 -12 -5 -14 -10 -3 -6 -4 -5 -3 2 2 7 -1
21 -6 31 -6 12 -5 23 3 33 13 16 29 19 29 4z m-250 -41 c0 7 5 9 11 5 8 -4 6
-10 -7 -17 -13 -7 -19 -7 -22 1 -2 7 -9 9 -14 6 -7 -4 -8 -2 -4 5 6 9 11 9 22
0 11 -9 14 -9 14 0z m276 2 c-4 -5 -1 -12 4 -14 6 -3 5 -4 -2 -3 -15 3 -23 26
-8 26 6 0 9 -4 6 -9z m-251 -31 c4 -6 12 -7 18 -4 7 4 8 3 4 -1 -12 -13 -37
-15 -37 -2 0 6 -6 2 -14 -8 -8 -11 -12 -24 -9 -29 4 -5 1 -6 -6 -2 -9 6 -9 11
0 22 6 8 8 14 3 14 -10 0 17 20 28 20 4 0 10 -5 13 -10z m285 -4 c0 -2 -8 -10
-17 -17 -16 -13 -17 -12 -4 4 13 16 21 21 21 13z m25 -15 c3 -5 2 -12 -3 -15
-5 -3 -9 1 -9 9 0 17 3 19 12 6z m-120 -25 c0 -15 -4 -21 -9 -16 -5 5 -6 16
-3 24 9 22 12 20 12 -8z m-22 -16 c3 -11 1 -18 -4 -14 -5 3 -9 12 -9 20 0 20
7 17 13 -6z m87 -4 c0 -3 -4 -8 -10 -11 -5 -3 -10 -1 -10 4 0 6 5 11 10 11 6
0 10 -2 10 -4z m-120 -36 c8 -5 11 -10 5 -10 -5 0 -17 5 -25 10 -8 5 -10 10
-5 10 6 0 17 -5 25 -10z m-49 -23 c-10 -9 -11 -8 -5 6 3 10 9 15 12 12 3 -3 0
-11 -7 -18z m-244 -3 c5 -13 8 -13 15 -2 8 11 9 11 6 0 -2 -8 -8 -12 -12 -11
-14 4 -38 -40 -30 -54 5 -8 2 -8 -9 2 -9 7 -17 10 -17 6 0 -4 -7 -2 -15 5 -13
11 -14 10 -9 -5 5 -12 4 -16 -3 -12 -6 4 -16 0 -23 -8 -7 -8 -22 -14 -35 -13
l-23 2 24 37 c16 27 20 39 11 42 -9 4 -9 6 1 6 7 1 15 -6 18 -14 9 -22 31 -18
56 10 25 29 36 31 45 9z m181 -14 c8 -16 11 -36 9 -42 -3 -7 -6 -2 -6 11 -1
19 -4 21 -15 12 -10 -9 -16 -9 -21 -1 -4 6 -4 14 -1 17 3 4 6 1 6 -6 0 -7 4
-10 10 -6 5 3 7 12 4 20 -4 8 -11 12 -17 8 -6 -3 -7 -1 -3 5 11 19 20 14 34
-18z m83 -3 c-10 -9 -11 -8 -5 6 3 10 9 15 12 12 3 -3 0 -11 -7 -18z m-29 -1
c7 4 8 2 4 -5 -9 -13 -26 -5 -25 12 0 9 2 8 6 -1 2 -6 10 -9 15 -6z m9 -39
c-10 -9 -11 -8 -5 6 3 10 9 15 12 12 3 -3 0 -11 -7 -18z m43 15 c3 -5 -1 -9
-9 -9 -8 0 -12 4 -9 9 3 4 7 8 9 8 2 0 6 -4 9 -8z m-59 -31 c3 -5 2 -12 -3
-15 -5 -3 -9 1 -9 9 0 17 3 19 12 6z m-29 -13 c4 -7 3 -8 -4 -4 -7 4 -12 2
-12 -5 0 -7 -3 -10 -6 -6 -6 5 3 27 11 27 2 0 7 -5 11 -12z m-84 -17 c-8 -4
-13 -11 -12 -15 1 -4 -1 -12 -4 -19 -3 -9 -1 26 3 41 1 1 7 2 14 2 9 0 9 -2
-1 -9z m15 -36 c0 -8 -4 -15 -9 -15 -10 0 -11 14 -1 23 9 10 10 9 10 -8z m-23
-31 c3 -8 2 -12 -4 -9 -6 3 -10 10 -10 16 0 14 7 11 14 -7z m-40 -16 c-5 -7
-2 -9 8 -6 9 4 15 0 15 -8 0 -8 -3 -12 -5 -9 -3 3 -10 0 -17 -5 -8 -7 -11 -3
-9 13 3 27 3 27 10 27 3 0 2 -5 -2 -12z m-54 -8 c8 -5 11 -10 5 -10 -5 0 -17
5 -25 10 -8 5 -10 10 -5 10 6 0 17 -5 25 -10z m-40 -40 c0 -5 -4 -10 -10 -10
-5 0 -10 5 -10 10 0 6 5 10 10 10 6 0 10 -4 10 -10z m58 -55 c-3 -3 -9 2 -12
12 -6 14 -5 15 5 6 7 -7 10 -15 7 -18z"/>
<path d="M4325 2210 c4 -21 -9 -27 -20 -10 -3 5 -13 6 -21 3 -15 -5 -14 -7 1
-15 15 -9 15 -11 -1 -29 -9 -10 -22 -16 -28 -12 -6 4 -5 -1 3 -10 11 -14 11
-20 1 -32 -14 -16 -34 -10 -24 7 4 7 2 8 -5 4 -9 -6 -9 -11 0 -22 6 -8 14 -12
17 -9 3 3 11 0 17 -5 9 -7 16 -6 25 5 7 8 9 15 4 15 -4 0 1 6 12 14 10 8 19
20 19 28 0 7 7 13 15 13 8 0 20 4 26 8 15 9 12 52 -3 52 -6 0 -15 3 -19 8 -14
13 -23 7 -19 -13z m21 -17 c-5 -15 -3 -14 9 2 15 19 15 19 12 -5 -3 -16 -10
-24 -20 -22 -15 2 -31 -14 -32 -33 -1 -5 -6 -9 -13 -7 -7 1 -13 -2 -13 -8 -1
-5 -3 -14 -4 -20 -1 -5 -3 -13 -4 -16 0 -3 -6 -2 -11 1 -8 5 -7 11 0 20 7 8 9
18 6 23 -3 5 3 17 14 27 16 15 18 21 8 34 -8 10 -4 9 10 -3 21 -18 28 -13 23
17 0 4 4 7 10 7 6 0 8 -8 5 -17z"/>
<path d="M4297 2152 c-15 -16 -15 -19 -2 -19 8 0 13 3 10 5 -3 3 0 11 6 19 17
20 5 16 -14 -5z"/>
<path d="M4310 2060 c0 -5 5 -10 11 -10 5 0 7 5 4 10 -3 6 -8 10 -11 10 -2 0
-4 -4 -4 -10z"/>
<path d="M4177 2037 c-14 -21 -15 -21 -35 -4 -13 12 -22 15 -27 8 -3 -6 -3
-11 1 -11 4 0 0 -8 -8 -17 -9 -10 -14 -28 -12 -39 2 -12 -5 -32 -16 -45 -15
-16 -17 -26 -10 -33 8 -8 14 -6 21 6 6 10 16 15 27 12 12 -4 13 -3 4 3 -9 7
-6 12 13 21 14 6 24 15 23 19 -2 5 4 17 12 28 17 23 50 26 73 6 10 -7 17 -10
18 -5 0 5 2 19 3 32 2 13 -1 25 -6 28 -4 3 -8 0 -8 -7 0 -8 -5 -8 -16 2 -25
20 -42 19 -57 -4z m37 2 c-2 -4 5 -10 16 -14 11 -3 20 -11 20 -17 0 -7 -4 -7
-12 0 -23 18 -58 6 -83 -28 -14 -19 -31 -35 -38 -36 -16 -2 -16 48 1 68 6 8 8
19 4 24 -4 5 3 0 16 -10 16 -14 25 -17 33 -9 6 6 19 9 28 5 13 -5 14 -3 4 9
-10 13 -10 16 2 16 8 0 12 -4 9 -8z m-114 -113 c0 -2 -8 -10 -17 -17 -16 -13
-17 -12 -4 4 13 16 21 21 21 13z"/>
<path d="M4123 2008 c-9 -12 -10 -45 -1 -53 2 -2 11 7 20 20 14 19 15 25 4 34
-10 8 -16 8 -23 -1z m21 -7 c3 -5 -1 -14 -8 -20 -12 -10 -14 -9 -11 6 2 10 4
19 4 21 2 5 10 2 15 -7z"/>
<path d="M4033 1871 c-1 -10 5 -18 13 -18 17 0 18 11 1 25 -10 8 -13 7 -14 -7z"/>
<path d="M3966 1861 c-4 -5 -2 -12 3 -16 6 -3 8 -12 5 -20 -4 -8 -10 -13 -14
-10 -5 3 -13 -3 -19 -12 -7 -13 -10 -14 -11 -4 0 8 -3 11 -7 8 -3 -4 -12 -2
-20 4 -7 6 -13 9 -13 6 0 -3 14 -15 31 -28 31 -22 54 -16 54 14 0 7 7 12 15
13 28 1 70 16 65 24 -8 13 -50 5 -47 -9 1 -7 -2 -10 -8 -6 -6 3 -8 10 -5 15 3
4 -2 13 -9 19 -9 8 -16 8 -20 2z m-15 -74 c-10 -9 -11 -8 -5 6 3 10 9 15 12
12 3 -3 0 -11 -7 -18z"/>
<path d="M3990 1935 c-7 -9 -10 -18 -6 -22 3 -3 6 -1 6 6 0 7 4 10 9 6 5 -3
12 -1 15 4 11 17 -11 21 -24 6z"/>
<path d="M3919 1913 c-12 -14 -12 -16 0 -8 11 6 13 4 8 -8 -9 -23 0 -21 13 2
13 25 -3 36 -21 14z"/>
<path d="M1712 5838 l357 -350 1473 0 c810 1 1480 1 1489 1 9 1 175 158 370
350 l354 350 -2200 0 -2200 0 357 -351z"/>
<path d="M3305 3267 c4 -36 4 -37 16 -37 5 0 8 4 5 9 -4 5 -3 11 1 14 5 2 2 2
-6 0 -8 -2 -11 2 -8 12 4 8 2 17 -2 19 -5 3 -7 -5 -6 -17z"/>
<path d="M3335 3220 c-8 -13 5 -13 25 0 13 8 13 10 -2 10 -9 0 -20 -4 -23 -10z"/>
<path d="M3262 3190 c7 -11 16 -20 21 -20 4 0 6 4 3 9 -4 5 -3 11 1 14 5 2 2
2 -4 1 -7 -2 -13 1 -13 6 0 6 -5 10 -10 10 -6 0 -5 -8 2 -20z"/>
<path d="M3370 3206 c0 -2 7 -7 16 -10 8 -3 12 -2 9 4 -6 10 -25 14 -25 6z"/>
<path d="M3372 3185 c4 -4 0 -14 -10 -21 -9 -7 -15 -14 -12 -17 3 -2 13 4 23
13 15 14 16 20 5 26 -7 4 -10 4 -6 -1z"/>
<path d="M3300 3165 c0 -8 4 -15 10 -15 5 0 7 7 4 15 -4 8 -8 15 -10 15 -2 0
-4 -7 -4 -15z"/>
<path d="M3220 3141 c0 -6 7 -11 15 -11 7 0 19 -8 25 -17 6 -10 10 -12 8 -4
-5 19 -48 48 -48 32z"/>
<path d="M3270 3140 c0 -5 5 -10 10 -10 6 0 10 5 10 10 0 6 -4 10 -10 10 -5 0
-10 -4 -10 -10z"/>
<path d="M3300 3119 c0 -9 31 -21 38 -14 3 3 0 5 -7 5 -7 0 -10 4 -7 8 3 5 -1
9 -9 9 -8 0 -15 -4 -15 -8z"/>
<path d="M3390 3123 c0 -6 8 -17 18 -24 16 -13 16 -13 2 6 -8 11 -16 22 -17
24 -2 2 -3 0 -3 -6z"/>
<path d="M3181 3091 c-19 -12 -7 -40 16 -37 10 2 21 -2 25 -8 12 -17 9 -28 -4
-20 -7 5 -8 3 -3 -5 5 -8 11 -9 17 -3 16 16 -9 52 -33 47 -13 -3 -19 0 -16 8
3 7 10 11 16 10 6 -2 11 2 11 7 0 12 -10 13 -29 1z"/>
<path d="M3385 3080 c10 -11 20 -20 23 -20 3 0 -3 9 -13 20 -10 11 -20 20 -23
20 -3 0 3 -9 13 -20z"/>
<path d="M3496 3087 c3 -10 9 -15 12 -12 3 3 0 11 -7 18 -10 9 -11 8 -5 -6z"/>
<path d="M3140 3081 c0 -5 7 -22 15 -37 9 -18 15 -23 15 -12 0 9 -5 20 -11 23
-6 4 -8 13 -5 21 3 8 1 14 -4 14 -6 0 -10 -4 -10 -9z"/>
<path d="M3227 3079 c7 -7 15 -10 18 -7 3 3 -2 9 -12 12 -14 6 -15 5 -6 -5z"/>
<path d="M3309 3066 c-9 -19 -9 -19 4 -4 9 12 17 14 24 7 6 -6 10 -5 10 4 0
21 -27 16 -38 -7z"/>
<path d="M3270 3061 c0 -6 4 -13 10 -16 6 -3 7 1 4 9 -7 18 -14 21 -14 7z"/>
<path d="M3425 3060 c-3 -6 1 -7 9 -4 18 7 21 14 7 14 -6 0 -13 -4 -16 -10z"/>
<path d="M3320 3045 c0 -2 6 -8 13 -14 10 -8 14 -7 14 2 0 8 -6 14 -14 14 -7
0 -13 -1 -13 -2z"/>
<path d="M3120 3020 c-8 -5 -12 -11 -9 -14 3 -3 14 1 25 9 21 16 8 20 -16 5z"/>
<path d="M3060 3000 c0 -5 5 -10 10 -10 6 0 10 5 10 10 0 6 -4 10 -10 10 -5 0
-10 -4 -10 -10z"/>
<path d="M3150 3000 c0 -5 9 -14 20 -20 11 -6 20 -9 20 -8 0 2 -9 11 -20 21
-11 9 -20 13 -20 7z"/>
<path d="M3180 3000 c18 -12 30 -13 30 -2 0 4 -10 9 -22 9 -18 2 -20 0 -8 -7z"/>
<path d="M3315 3002 c3 -3 0 -10 -5 -17 -7 -8 -5 -12 5 -12 8 0 13 3 10 5 -3
3 0 10 5 17 7 8 5 12 -5 12 -8 0 -13 -3 -10 -5z"/>
<path d="M3381 2996 c-9 -11 -9 -16 1 -22 7 -4 10 -4 6 1 -4 4 -3 14 3 22 6 7
9 13 6 13 -2 0 -10 -6 -16 -14z"/>
<path d="M3086 2975 c-3 -8 -10 -15 -16 -15 -6 0 -8 5 -5 10 3 6 1 10 -4 10
-16 0 -13 -20 4 -26 8 -4 12 -10 9 -15 -3 -5 3 -6 12 -2 13 5 15 3 9 -7 -6 -9
-4 -11 5 -5 10 6 10 10 -3 20 -15 11 -15 13 1 28 9 9 11 17 5 17 -6 0 -13 -7
-17 -15z"/>
<path d="M3130 2983 c5 -2 8 -9 5 -13 -3 -5 -1 -11 4 -14 5 -4 8 2 7 11 -2 9
-8 18 -15 19 -6 1 -7 0 -1 -3z"/>
<path d="M3228 2967 c2 -10 5 -16 6 -15 1 2 7 10 13 18 10 13 8 16 -6 16 -13
0 -17 -6 -13 -19z"/>
<path d="M3110 2965 c0 -5 5 -17 10 -25 5 -8 10 -10 10 -5 0 6 -5 17 -10 25
-5 8 -10 11 -10 5z"/>
<path d="M3259 2953 c-13 -16 -12 -17 4 -4 16 13 21 21 13 21 -2 0 -10 -8 -17
-17z"/>
<path d="M3026 2934 c-8 -21 -8 -24 5 -24 5 0 7 5 3 12 -5 7 -2 9 9 5 11 -4
14 -2 10 9 -7 19 -19 18 -27 -2z"/>
<path d="M3190 2946 c0 -2 7 -7 16 -10 8 -3 12 -2 9 4 -6 10 -25 14 -25 6z"/>
<path d="M3171 2924 c0 -11 3 -14 6 -6 3 7 2 16 -1 19 -3 4 -6 -2 -5 -13z"/>
<path d="M3070 2911 c0 -7 -5 -9 -12 -5 -7 5 -8 3 -3 -5 5 -9 10 -10 18 -2 6
6 8 14 4 18 -4 3 -7 1 -7 -6z"/>
<path d="M3094 2902 c3 -5 0 -13 -6 -15 -9 -4 -10 -6 -1 -6 17 -1 25 16 12 25
-7 4 -9 3 -5 -4z"/>
<path d="M3350 2906 c0 -2 7 -7 16 -10 8 -3 12 -2 9 4 -6 10 -25 14 -25 6z"/>
<path d="M3014 2881 c2 -14 9 -27 17 -29 11 -3 12 -2 1 6 -8 5 -13 12 -12 16
1 4 -1 12 -4 19 -2 6 -3 1 -2 -12z"/>
<path d="M3036 2887 c3 -10 9 -15 12 -12 3 3 0 11 -7 18 -10 9 -11 8 -5 -6z"/>
<path d="M3134 2878 c-4 -7 -4 -10 1 -6 4 4 15 2 24 -5 14 -11 14 -10 2 6 -16
20 -18 21 -27 5z"/>
<path d="M3233 2873 c0 -9 4 -10 14 -2 7 6 13 12 13 14 0 1 -6 2 -13 2 -8 0
-14 -6 -14 -14z"/>
<path d="M3130 2846 c0 -8 4 -17 9 -20 5 -4 7 3 4 14 -6 23 -13 26 -13 6z"/>
<path d="M2960 2840 c-8 -5 -12 -11 -10 -14 3 -2 14 2 24 10 22 15 10 19 -14
4z"/>
<path d="M3050 2846 c0 -2 7 -7 16 -10 8 -3 12 -2 9 4 -6 10 -25 14 -25 6z"/>
<path d="M2977 2823 c-3 -5 0 -17 4 -28 9 -19 9 -19 5 2 -3 16 2 23 18 26 l21
4 -22 2 c-12 0 -24 -2 -26 -6z"/>
<path d="M3050 2810 c-9 -6 -10 -10 -3 -10 6 0 15 5 18 10 8 12 4 12 -15 0z"/>
<path d="M3005 2800 c-3 -6 1 -7 9 -4 18 7 21 14 7 14 -6 0 -13 -4 -16 -10z"/>
<path d="M3114 2802 c4 -3 14 -7 22 -8 9 -1 13 0 10 4 -4 3 -14 7 -22 8 -9 1
-13 0 -10 -4z"/>
<path d="M3073 2787 c0 -8 6 -14 14 -14 9 0 10 4 2 14 -6 7 -12 13 -14 13 -1
0 -2 -6 -2 -13z"/>
<path d="M2939 2788 c-6 -22 -5 -38 3 -38 6 0 7 7 4 16 -4 12 -2 15 9 10 8 -3
15 -1 15 4 0 8 -28 15 -31 8z"/>
<path d="M3030 2786 c0 -2 7 -7 16 -10 8 -3 12 -2 9 4 -6 10 -25 14 -25 6z"/>
<path d="M2860 2771 c0 -6 4 -13 10 -16 6 -3 7 1 4 9 -7 18 -14 21 -14 7z"/>
<path d="M3014 2760 c0 -13 4 -16 12 -10 6 6 14 7 17 3 4 -3 7 -3 7 0 0 3 -8
11 -18 16 -14 7 -18 6 -18 -9z"/>
<path d="M2895 2759 c-8 -12 0 -22 20 -25 8 -1 13 2 9 7 -3 5 -10 7 -15 4 -5
-4 -9 -2 -9 4 0 5 6 12 13 14 9 4 9 6 0 6 -6 1 -15 -4 -18 -10z"/>
<path d="M3199 2753 c-13 -16 -12 -17 4 -4 9 7 17 15 17 17 0 8 -8 3 -21 -13z"/>
<path d="M2997 2712 c-15 -16 -15 -19 -2 -19 8 0 13 3 10 5 -3 3 0 11 6 19 17
20 5 16 -14 -5z"/>
<path d="M3030 2726 c0 -2 7 -7 16 -10 8 -3 12 -2 9 4 -6 10 -25 14 -25 6z"/>
<path d="M3055 2689 c-4 -6 -5 -12 -2 -15 2 -3 7 2 10 11 7 17 1 20 -8 4z"/>
<path d="M4070 2496 c0 -2 8 -10 18 -17 15 -13 16 -12 3 4 -13 16 -21 21 -21
13z"/>
<path d="M4120 2460 c-9 -6 -10 -10 -3 -10 6 0 15 5 18 10 8 12 4 12 -15 0z"/>
<path d="M4143 2405 c17 -19 17 -19 35 0 16 18 16 18 0 6 -15 -11 -21 -11 -35
0 -17 12 -17 12 0 -6z"/>
<path d="M4190 2390 c-8 -15 -8 -18 3 -14 8 3 14 11 14 19 0 20 -4 19 -17 -5z"/>
<path d="M4110 2396 c0 -2 8 -10 18 -17 15 -13 16 -12 3 4 -13 16 -21 21 -21
13z"/>
<path d="M3906 2358 c3 -5 10 -6 15 -3 13 9 11 12 -6 12 -8 0 -12 -4 -9 -9z"/>
<path d="M4013 2353 c0 -9 4 -10 14 -2 7 6 13 12 13 14 0 1 -6 2 -13 2 -8 0
-14 -6 -14 -14z"/>
<path d="M4195 2354 c-10 -8 -14 -14 -9 -14 6 0 14 3 18 7 3 4 13 8 22 9 11 2
13 -4 9 -19 -5 -20 -5 -20 5 -4 19 31 -12 45 -45 21z"/>
<path d="M4100 2344 c0 -1 8 -8 17 -15 9 -8 14 -9 10 -2 -4 6 -1 13 5 16 7 3
3 4 -9 4 -13 -1 -23 -2 -23 -3z"/>
<path d="M4015 2320 c-2 -3 5 -7 16 -7 10 -1 19 2 19 6 0 9 -29 10 -35 1z"/>
<path d="M4080 2326 c0 -2 8 -10 18 -17 15 -13 16 -12 3 4 -13 16 -21 21 -21
13z"/>
<path d="M4190 2320 c0 -5 5 -10 11 -10 5 0 7 5 4 10 -3 6 -8 10 -11 10 -2 0
-4 -4 -4 -10z"/>
<path d="M3920 2300 c-9 -6 -10 -10 -3 -10 6 0 15 5 18 10 8 12 4 12 -15 0z"/>
<path d="M3955 2300 c-3 -5 -1 -10 4 -10 6 0 11 5 11 10 0 6 -2 10 -4 10 -3 0
-8 -4 -11 -10z"/>
<path d="M4108 2288 c-10 -10 -14 -18 -9 -18 10 0 36 29 30 34 -2 1 -12 -6
-21 -16z"/>
<path d="M4213 2293 c-3 -8 -3 -17 1 -20 3 -4 6 0 6 8 0 8 9 15 19 16 14 1 19
-4 16 -16 -2 -12 5 -22 19 -29 18 -8 22 -7 22 9 0 14 -3 16 -15 6 -12 -10 -14
-9 -8 5 3 9 0 21 -6 26 -18 14 -48 11 -54 -5z"/>
<path d="M3984 2278 l-19 -23 23 19 c12 11 22 21 22 23 0 8 -8 2 -26 -19z"/>
<path d="M3999 2253 c-13 -16 -12 -17 4 -4 9 7 17 15 17 17 0 8 -8 3 -21 -13z"/>
<path d="M4115 2259 c-19 -9 -19 -9 2 -5 12 2 24 -2 27 -10 7 -17 26 -19 26
-2 0 6 -3 8 -7 5 -3 -4 -11 0 -17 7 -8 10 -17 11 -31 5z"/>
<path d="M3936 2238 c3 -5 10 -6 15 -3 13 9 11 12 -6 12 -8 0 -12 -4 -9 -9z"/>
<path d="M4035 2240 c3 -5 8 -10 11 -10 2 0 4 5 4 10 0 6 -5 10 -11 10 -5 0
-7 -4 -4 -10z"/>
<path d="M4095 2220 c-3 -6 1 -7 9 -4 18 7 21 14 7 14 -6 0 -13 -4 -16 -10z"/>
<path d="M3939 2207 c7 -9 17 -15 21 -12 5 3 11 0 13 -5 3 -6 4 -5 3 2 -2 7
-7 13 -12 13 -5 0 -16 4 -24 10 -13 8 -13 7 -1 -8z"/>
<path d="M4026 2195 c10 -8 23 -15 28 -15 6 0 1 7 -10 15 -10 8 -23 15 -28 15
-6 0 -1 -7 10 -15z"/>
<path d="M4111 2194 c0 -11 3 -14 6 -6 3 7 2 16 -1 19 -3 4 -6 -2 -5 -13z"/>
<path d="M3904 2182 c4 -3 14 -7 22 -8 9 -1 13 0 10 4 -4 3 -14 7 -22 8 -9 1
-13 0 -10 -4z"/>
<path d="M4001 2176 c-9 -10 -8 -15 3 -19 11 -4 13 -1 9 10 -5 12 -3 14 7 8 9
-5 11 -4 6 3 -9 15 -11 15 -25 -2z"/>
<path d="M3854 2169 c-3 -6 -2 -15 3 -20 5 -5 9 -1 9 11 0 23 -2 24 -12 9z"/>
<path d="M4085 2171 c3 -5 1 -12 -5 -16 -5 -3 -10 -1 -10 4 0 6 -4 11 -9 11
-12 0 -8 -24 7 -42 6 -8 9 -18 5 -21 -3 -4 -1 -7 5 -7 15 0 15 13 1 27 -8 8
-5 15 11 26 18 12 19 15 5 21 -9 3 -13 2 -10 -3z"/>
<path d="M3750 2156 c7 -7 13 -7 20 0 6 6 3 10 -10 10 -13 0 -16 -4 -10 -10z"/>
<path d="M3880 2166 c0 -2 8 -10 18 -17 15 -13 16 -12 3 4 -13 16 -21 21 -21
13z"/>
<path d="M3947 2146 c-4 -10 -1 -13 8 -9 8 3 12 9 9 14 -7 12 -11 11 -17 -5z"/>
<path d="M3800 2140 c-9 -6 -10 -10 -3 -10 6 0 15 5 18 10 8 12 4 12 -15 0z"/>
<path d="M4033 2132 c0 -11 5 -18 9 -16 4 3 8 0 8 -7 0 -7 3 -10 6 -6 3 3 -1
16 -9 28 -16 22 -16 22 -14 1z"/>
<path d="M3833 2125 c0 -8 4 -12 9 -9 5 3 6 10 3 15 -9 13 -12 11 -12 -6z"/>
<path d="M3886 2121 c8 -9 44 -11 44 -3 0 4 -11 8 -25 8 -13 0 -22 -2 -19 -5z"/>
<path d="M3964 2118 c-2 -4 8 -5 23 -2 37 7 43 15 9 12 -15 -1 -30 -6 -32 -10z"/>
<path d="M3947 2093 c4 -11 3 -14 -5 -9 -8 5 -10 2 -6 -9 5 -11 2 -14 -10 -9
-9 3 -16 2 -16 -4 0 -14 33 -8 38 6 2 7 8 9 14 6 6 -4 5 2 -1 15 -14 25 -23
28 -14 4z"/>
<path d="M4003 2103 c-7 -3 -13 -9 -13 -15 0 -6 7 -4 17 3 15 12 16 12 10 -3
-3 -10 -2 -18 3 -18 12 0 13 27 3 33 -5 2 -14 2 -20 0z"/>
<path d="M3819 2086 c11 -12 51 -29 51 -21 0 2 -14 10 -31 19 -23 12 -28 12
-20 2z"/>
<path d="M3893 2085 c0 -8 4 -12 9 -9 5 3 6 10 3 15 -9 13 -12 11 -12 -6z"/>
<path d="M3665 2080 c-3 -6 1 -7 9 -4 18 7 21 14 7 14 -6 0 -13 -4 -16 -10z"/>
<path d="M3756 2081 c-3 -5 2 -15 12 -22 15 -12 16 -12 5 2 -7 9 -10 19 -6 22
3 4 4 7 0 7 -3 0 -8 -4 -11 -9z"/>
<path d="M3793 2073 c0 -11 7 -20 14 -20 10 0 10 4 1 16 -7 9 -13 18 -15 20
-1 2 -1 -5 0 -16z"/>
<path d="M3694 2040 c0 -13 4 -16 10 -10 7 7 7 13 0 20 -6 6 -10 3 -10 -10z"/>
<path d="M3730 2041 c0 -6 4 -12 8 -15 5 -3 9 1 9 9 0 8 -4 15 -9 15 -4 0 -8
-4 -8 -9z"/>
<path d="M3857 2017 c3 -5 14 -7 24 -4 14 4 19 0 19 -15 0 -10 -4 -16 -10 -13
-5 3 -15 -4 -21 -17 -12 -28 -51 -37 -42 -10 4 14 3 14 -5 2 -6 -8 -9 -18 -6
-22 10 -15 47 -1 59 23 8 13 17 23 22 22 4 -2 8 7 8 19 0 16 -6 22 -27 22 -14
1 -24 -2 -21 -7z"/>
<path d="M3693 1996 c-3 -6 -3 -8 2 -4 4 4 13 3 20 -2 8 -7 12 -5 12 3 0 16
-25 18 -34 3z"/>
<path d="M3799 2008 c-6 -21 -5 -38 1 -38 5 0 8 9 7 20 -1 17 -5 26 -8 18z"/>
<path d="M3840 2000 c8 -5 20 -10 25 -10 6 0 3 5 -5 10 -8 5 -19 10 -25 10 -5
0 -3 -5 5 -10z"/>
<path d="M3745 1959 c-4 -6 -5 -12 -2 -15 2 -3 7 2 10 11 7 17 1 20 -8 4z"/>
<path d="M3774 1955 c1 -8 6 -18 11 -22 4 -4 5 -3 2 4 -4 6 -2 13 5 15 8 3 6
6 -4 10 -10 4 -15 2 -14 -7z"/>
<path d="M3790 1902 c0 -4 9 -8 20 -9 11 -1 18 2 15 8 -7 11 -35 12 -35 1z"/>
<path d="M3830 1875 c-11 -13 -10 -14 4 -9 9 3 16 10 16 15 0 13 -6 11 -20 -6z"/>
<path d="M3840 1851 c0 -6 4 -13 10 -16 6 -3 7 1 4 9 -7 18 -14 21 -14 7z"/>
</g>
</svg>
